<mxfile host="app.diagrams.net" agent="Mozilla/5.0 (Windows NT 10.0; Win64; x64) AppleWebKit/537.36 (KHTML, like Gecko) Chrome/136.0.0.0 Safari/537.36 Trailer/92.3.3050.23" version="26.0.6">
  <diagram name="PÃ¡gina-1" id="9IdR3_XDB2LA6B1ZRiHz">
    <mxGraphModel dx="989" dy="509" grid="1" gridSize="10" guides="1" tooltips="1" connect="1" arrows="1" fold="1" page="1" pageScale="1" pageWidth="827" pageHeight="1169" math="0" shadow="0">
      <root>
        <mxCell id="0" />
        <mxCell id="1" parent="0" />
        <mxCell id="rpU0YzQiXdpBH5w_9Wxv-7" style="edgeStyle=orthogonalEdgeStyle;rounded=0;orthogonalLoop=1;jettySize=auto;html=1;exitX=0.5;exitY=1;exitDx=0;exitDy=0;entryX=0.5;entryY=0;entryDx=0;entryDy=0;" edge="1" parent="1" source="rpU0YzQiXdpBH5w_9Wxv-1" target="rpU0YzQiXdpBH5w_9Wxv-3">
          <mxGeometry relative="1" as="geometry" />
        </mxCell>
        <mxCell id="rpU0YzQiXdpBH5w_9Wxv-1" value="Start" style="rounded=1;whiteSpace=wrap;html=1;" vertex="1" parent="1">
          <mxGeometry x="280" y="40" width="120" height="60" as="geometry" />
        </mxCell>
        <mxCell id="rpU0YzQiXdpBH5w_9Wxv-2" value="End" style="rounded=1;whiteSpace=wrap;html=1;" vertex="1" parent="1">
          <mxGeometry x="330" y="890" width="120" height="60" as="geometry" />
        </mxCell>
        <mxCell id="rpU0YzQiXdpBH5w_9Wxv-3" value="&quot;Welcome to the program that tells you if a number is divisible by another&quot;" style="shape=document;whiteSpace=wrap;html=1;boundedLbl=1;" vertex="1" parent="1">
          <mxGeometry x="250" y="120" width="180" height="80" as="geometry" />
        </mxCell>
        <mxCell id="rpU0YzQiXdpBH5w_9Wxv-12" style="edgeStyle=orthogonalEdgeStyle;rounded=0;orthogonalLoop=1;jettySize=auto;html=1;exitX=0.5;exitY=1;exitDx=0;exitDy=0;entryX=0.5;entryY=0;entryDx=0;entryDy=0;" edge="1" parent="1" source="rpU0YzQiXdpBH5w_9Wxv-4" target="rpU0YzQiXdpBH5w_9Wxv-9">
          <mxGeometry relative="1" as="geometry" />
        </mxCell>
        <mxCell id="rpU0YzQiXdpBH5w_9Wxv-4" value="Read:&lt;div class=&quot;cursor-hover&quot;&gt;&quot;Enter the first number:&quot;&lt;br&gt;&lt;div class=&quot;cursor-hover&quot;&gt;Num1&amp;lt;--&lt;/div&gt;&lt;/div&gt;" style="shape=parallelogram;perimeter=parallelogramPerimeter;whiteSpace=wrap;html=1;fixedSize=1;" vertex="1" parent="1">
          <mxGeometry x="240" y="220" width="180" height="60" as="geometry" />
        </mxCell>
        <mxCell id="rpU0YzQiXdpBH5w_9Wxv-14" style="edgeStyle=orthogonalEdgeStyle;rounded=0;orthogonalLoop=1;jettySize=auto;html=1;exitX=0.5;exitY=1;exitDx=0;exitDy=0;entryX=0.5;entryY=0;entryDx=0;entryDy=0;" edge="1" parent="1" source="rpU0YzQiXdpBH5w_9Wxv-9" target="rpU0YzQiXdpBH5w_9Wxv-13">
          <mxGeometry relative="1" as="geometry" />
        </mxCell>
        <mxCell id="rpU0YzQiXdpBH5w_9Wxv-9" value="Read:&lt;div class=&quot;cursor-hover&quot;&gt;&quot;Enter the second number:&quot;&lt;br&gt;&lt;div class=&quot;cursor-hover&quot;&gt;Num2&amp;lt;--&lt;/div&gt;&lt;/div&gt;" style="shape=parallelogram;perimeter=parallelogramPerimeter;whiteSpace=wrap;html=1;fixedSize=1;" vertex="1" parent="1">
          <mxGeometry x="234" y="300" width="180" height="60" as="geometry" />
        </mxCell>
        <mxCell id="rpU0YzQiXdpBH5w_9Wxv-11" style="edgeStyle=orthogonalEdgeStyle;rounded=0;orthogonalLoop=1;jettySize=auto;html=1;exitX=0.5;exitY=0;exitDx=0;exitDy=0;entryX=0.449;entryY=0.87;entryDx=0;entryDy=0;entryPerimeter=0;endArrow=none;endFill=0;startArrow=classic;startFill=1;" edge="1" parent="1" source="rpU0YzQiXdpBH5w_9Wxv-4" target="rpU0YzQiXdpBH5w_9Wxv-3">
          <mxGeometry relative="1" as="geometry" />
        </mxCell>
        <mxCell id="rpU0YzQiXdpBH5w_9Wxv-15" style="edgeStyle=orthogonalEdgeStyle;rounded=0;orthogonalLoop=1;jettySize=auto;html=1;exitX=1;exitY=0.5;exitDx=0;exitDy=0;" edge="1" parent="1" source="rpU0YzQiXdpBH5w_9Wxv-13">
          <mxGeometry relative="1" as="geometry">
            <mxPoint x="619.9999999999998" y="510" as="targetPoint" />
          </mxGeometry>
        </mxCell>
        <mxCell id="rpU0YzQiXdpBH5w_9Wxv-18" style="edgeStyle=orthogonalEdgeStyle;rounded=0;orthogonalLoop=1;jettySize=auto;html=1;exitX=0;exitY=0.5;exitDx=0;exitDy=0;" edge="1" parent="1" source="rpU0YzQiXdpBH5w_9Wxv-13">
          <mxGeometry relative="1" as="geometry">
            <mxPoint x="160" y="610" as="targetPoint" />
          </mxGeometry>
        </mxCell>
        <mxCell id="rpU0YzQiXdpBH5w_9Wxv-13" value="&lt;span style=&quot;background-color: transparent; color: light-dark(rgb(0, 0, 0), rgb(255, 255, 255));&quot;&gt;Num2 == 0&lt;/span&gt;" style="rhombus;whiteSpace=wrap;html=1;" vertex="1" parent="1">
          <mxGeometry x="284" y="390" width="80" height="80" as="geometry" />
        </mxCell>
        <mxCell id="rpU0YzQiXdpBH5w_9Wxv-16" value="Yes" style="text;html=1;align=center;verticalAlign=middle;whiteSpace=wrap;rounded=0;" vertex="1" parent="1">
          <mxGeometry x="220" y="400" width="60" height="30" as="geometry" />
        </mxCell>
        <mxCell id="rpU0YzQiXdpBH5w_9Wxv-17" value="No" style="text;html=1;align=center;verticalAlign=middle;whiteSpace=wrap;rounded=0;" vertex="1" parent="1">
          <mxGeometry x="364" y="400" width="60" height="30" as="geometry" />
        </mxCell>
        <mxCell id="rpU0YzQiXdpBH5w_9Wxv-21" style="edgeStyle=orthogonalEdgeStyle;rounded=0;orthogonalLoop=1;jettySize=auto;html=1;exitX=1;exitY=0.5;exitDx=0;exitDy=0;entryX=0;entryY=0.5;entryDx=0;entryDy=0;" edge="1" parent="1" source="rpU0YzQiXdpBH5w_9Wxv-20" target="rpU0YzQiXdpBH5w_9Wxv-2">
          <mxGeometry relative="1" as="geometry" />
        </mxCell>
        <mxCell id="rpU0YzQiXdpBH5w_9Wxv-20" value="&quot;ERROR, you cant divide by 0&quot;" style="shape=document;whiteSpace=wrap;html=1;boundedLbl=1;" vertex="1" parent="1">
          <mxGeometry x="100" y="610" width="120" height="80" as="geometry" />
        </mxCell>
        <mxCell id="rpU0YzQiXdpBH5w_9Wxv-23" style="edgeStyle=orthogonalEdgeStyle;rounded=0;orthogonalLoop=1;jettySize=auto;html=1;exitX=0;exitY=0.5;exitDx=0;exitDy=0;" edge="1" parent="1" source="rpU0YzQiXdpBH5w_9Wxv-22">
          <mxGeometry relative="1" as="geometry">
            <mxPoint x="489.9999999999998" y="720" as="targetPoint" />
          </mxGeometry>
        </mxCell>
        <mxCell id="rpU0YzQiXdpBH5w_9Wxv-24" style="edgeStyle=orthogonalEdgeStyle;rounded=0;orthogonalLoop=1;jettySize=auto;html=1;exitX=1;exitY=0.5;exitDx=0;exitDy=0;" edge="1" parent="1" source="rpU0YzQiXdpBH5w_9Wxv-22">
          <mxGeometry relative="1" as="geometry">
            <mxPoint x="759.9999999999998" y="730" as="targetPoint" />
          </mxGeometry>
        </mxCell>
        <mxCell id="rpU0YzQiXdpBH5w_9Wxv-22" value="Num1%Num2 == 0" style="rhombus;whiteSpace=wrap;html=1;" vertex="1" parent="1">
          <mxGeometry x="545" y="508" width="150" height="110" as="geometry" />
        </mxCell>
        <mxCell id="rpU0YzQiXdpBH5w_9Wxv-27" style="edgeStyle=orthogonalEdgeStyle;rounded=0;orthogonalLoop=1;jettySize=auto;html=1;exitX=0;exitY=0.25;exitDx=0;exitDy=0;entryX=0.5;entryY=0;entryDx=0;entryDy=0;" edge="1" parent="1" source="rpU0YzQiXdpBH5w_9Wxv-25" target="rpU0YzQiXdpBH5w_9Wxv-2">
          <mxGeometry relative="1" as="geometry" />
        </mxCell>
        <mxCell id="rpU0YzQiXdpBH5w_9Wxv-25" value="&quot;The Num1 is divisible by Num2&quot;" style="shape=document;whiteSpace=wrap;html=1;boundedLbl=1;" vertex="1" parent="1">
          <mxGeometry x="430" y="720" width="120" height="80" as="geometry" />
        </mxCell>
        <mxCell id="rpU0YzQiXdpBH5w_9Wxv-28" style="edgeStyle=orthogonalEdgeStyle;rounded=0;orthogonalLoop=1;jettySize=auto;html=1;exitX=0;exitY=0.5;exitDx=0;exitDy=0;entryX=1;entryY=0.5;entryDx=0;entryDy=0;" edge="1" parent="1" source="rpU0YzQiXdpBH5w_9Wxv-26" target="rpU0YzQiXdpBH5w_9Wxv-2">
          <mxGeometry relative="1" as="geometry">
            <Array as="points">
              <mxPoint x="707" y="920" />
            </Array>
          </mxGeometry>
        </mxCell>
        <mxCell id="rpU0YzQiXdpBH5w_9Wxv-26" value="&quot;The Num1 is NOT divisible by Num2&quot;" style="shape=document;whiteSpace=wrap;html=1;boundedLbl=1;" vertex="1" parent="1">
          <mxGeometry x="707" y="730" width="120" height="80" as="geometry" />
        </mxCell>
        <mxCell id="rpU0YzQiXdpBH5w_9Wxv-29" value="Yes" style="text;html=1;align=center;verticalAlign=middle;whiteSpace=wrap;rounded=0;" vertex="1" parent="1">
          <mxGeometry x="485" y="530" width="60" height="30" as="geometry" />
        </mxCell>
        <mxCell id="rpU0YzQiXdpBH5w_9Wxv-30" value="No" style="text;html=1;align=center;verticalAlign=middle;whiteSpace=wrap;rounded=0;" vertex="1" parent="1">
          <mxGeometry x="695" y="530" width="60" height="30" as="geometry" />
        </mxCell>
      </root>
    </mxGraphModel>
  </diagram>
</mxfile>
